<svg id="visual" viewBox="0 0 900 600" width="900" height="600" xmlns="http://www.w3.org/2000/svg" xmlns:xlink="http://www.w3.org/1999/xlink" version="1.1"><rect x="0" y="0" width="900" height="600" fill="#001220"></rect><path d="M0 73L21.5 72.8C43 72.7 86 72.3 128.8 75.2C171.7 78 214.3 84 257.2 87.3C300 90.7 343 91.3 385.8 87.7C428.7 84 471.3 76 514.2 72.2C557 68.3 600 68.7 642.8 68.2C685.7 67.7 728.3 66.3 771.2 70.8C814 75.3 857 85.7 878.5 90.8L900 96L900 0L878.5 0C857 0 814 0 771.2 0C728.3 0 685.7 0 642.8 0C600 0 557 0 514.2 0C471.3 0 428.7 0 385.8 0C343 0 300 0 257.2 0C214.3 0 171.7 0 128.8 0C86 0 43 0 21.5 0L0 0Z" fill="#f7770f"></path><path d="M0 57L21.5 57C43 57 86 57 128.8 61C171.7 65 214.3 73 257.2 73.7C300 74.3 343 67.7 385.8 63.2C428.7 58.7 471.3 56.3 514.2 54.3C557 52.3 600 50.7 642.8 51.8C685.7 53 728.3 57 771.2 61.3C814 65.7 857 70.3 878.5 72.7L900 75L900 0L878.5 0C857 0 814 0 771.2 0C728.3 0 685.7 0 642.8 0C600 0 557 0 514.2 0C471.3 0 428.7 0 385.8 0C343 0 300 0 257.2 0C214.3 0 171.7 0 128.8 0C86 0 43 0 21.5 0L0 0Z" fill="#f98619"></path><path d="M0 40L21.5 43.8C43 47.7 86 55.3 128.8 59C171.7 62.7 214.3 62.3 257.2 59.8C300 57.3 343 52.7 385.8 52.7C428.7 52.7 471.3 57.3 514.2 57.2C557 57 600 52 642.8 50C685.7 48 728.3 49 771.2 48.5C814 48 857 46 878.5 45L900 44L900 0L878.5 0C857 0 814 0 771.2 0C728.3 0 685.7 0 642.8 0C600 0 557 0 514.2 0C471.3 0 428.7 0 385.8 0C343 0 300 0 257.2 0C214.3 0 171.7 0 128.8 0C86 0 43 0 21.5 0L0 0Z" fill="#fa9424"></path><path d="M0 35L21.5 35.7C43 36.3 86 37.7 128.8 38.5C171.7 39.3 214.3 39.7 257.2 37.2C300 34.7 343 29.3 385.8 29.7C428.7 30 471.3 36 514.2 38.3C557 40.7 600 39.3 642.8 37.8C685.7 36.3 728.3 34.7 771.2 34.3C814 34 857 35 878.5 35.5L900 36L900 0L878.5 0C857 0 814 0 771.2 0C728.3 0 685.7 0 642.8 0C600 0 557 0 514.2 0C471.3 0 428.7 0 385.8 0C343 0 300 0 257.2 0C214.3 0 171.7 0 128.8 0C86 0 43 0 21.5 0L0 0Z" fill="#fba230"></path><path d="M0 16L21.5 18C43 20 86 24 128.8 23.2C171.7 22.3 214.3 16.7 257.2 14.7C300 12.7 343 14.3 385.8 15.3C428.7 16.3 471.3 16.7 514.2 18.7C557 20.7 600 24.3 642.8 25.2C685.7 26 728.3 24 771.2 21.8C814 19.7 857 17.3 878.5 16.2L900 15L900 0L878.5 0C857 0 814 0 771.2 0C728.3 0 685.7 0 642.8 0C600 0 557 0 514.2 0C471.3 0 428.7 0 385.8 0C343 0 300 0 257.2 0C214.3 0 171.7 0 128.8 0C86 0 43 0 21.5 0L0 0Z" fill="#fcaf3c"></path></svg>