<svg id="visual" viewBox="0 0 900 600" width="900" height="600" xmlns="http://www.w3.org/2000/svg" xmlns:xlink="http://www.w3.org/1999/xlink" version="1.1"><path d="M755 600L764 600L764 574L737 574L737 548L674 548L674 522L719 522L719 496L647 496L647 470L746 470L746 443L737 443L737 417L755 417L755 391L773 391L773 365L710 365L710 339L692 339L692 313L701 313L701 287L665 287L665 261L647 261L647 235L755 235L755 209L746 209L746 183L728 183L728 157L755 157L755 130L629 130L629 104L692 104L692 78L674 78L674 52L746 52L746 26L656 26L656 0L900 0L900 26L900 26L900 52L900 52L900 78L900 78L900 104L900 104L900 130L900 130L900 157L900 157L900 183L900 183L900 209L900 209L900 235L900 235L900 261L900 261L900 287L900 287L900 313L900 313L900 339L900 339L900 365L900 365L900 391L900 391L900 417L900 417L900 443L900 443L900 470L900 470L900 496L900 496L900 522L900 522L900 548L900 548L900 574L900 574L900 600L900 600Z" fill="#ffffff"></path><path d="M737 600L737 600L737 574L719 574L719 548L647 548L647 522L683 522L683 496L602 496L602 470L710 470L710 443L692 443L692 417L728 417L728 391L746 391L746 365L692 365L692 339L647 339L647 313L665 313L665 287L620 287L620 261L629 261L629 235L728 235L728 209L701 209L701 183L683 183L683 157L728 157L728 130L611 130L611 104L674 104L674 78L638 78L638 52L719 52L719 26L611 26L611 0L657 0L657 26L747 26L747 52L675 52L675 78L693 78L693 104L630 104L630 130L756 130L756 157L729 157L729 183L747 183L747 209L756 209L756 235L648 235L648 261L666 261L666 287L702 287L702 313L693 313L693 339L711 339L711 365L774 365L774 391L756 391L756 417L738 417L738 443L747 443L747 470L648 470L648 496L720 496L720 522L675 522L675 548L738 548L738 574L765 574L765 600L756 600Z" fill="#fff7ed"></path><path d="M692 600L701 600L701 574L665 574L665 548L575 548L575 522L638 522L638 496L548 496L548 470L674 470L674 443L665 443L665 417L701 417L701 391L683 391L683 365L665 365L665 339L593 339L593 313L638 313L638 287L557 287L557 261L557 261L557 235L656 235L656 209L656 209L656 183L629 183L629 157L683 157L683 130L575 130L575 104L611 104L611 78L584 78L584 52L647 52L647 26L557 26L557 0L612 0L612 26L720 26L720 52L639 52L639 78L675 78L675 104L612 104L612 130L729 130L729 157L684 157L684 183L702 183L702 209L729 209L729 235L630 235L630 261L621 261L621 287L666 287L666 313L648 313L648 339L693 339L693 365L747 365L747 391L729 391L729 417L693 417L693 443L711 443L711 470L603 470L603 496L684 496L684 522L648 522L648 548L720 548L720 574L738 574L738 600L738 600Z" fill="#fff0dc"></path><path d="M620 600L602 600L602 574L611 574L611 548L539 548L539 522L584 522L584 496L467 496L467 470L620 470L620 443L602 443L602 417L620 417L620 391L620 391L620 365L584 365L584 339L539 339L539 313L593 313L593 287L476 287L476 261L512 261L512 235L602 235L602 209L602 209L602 183L584 183L584 157L629 157L629 130L512 130L512 104L557 104L557 78L539 78L539 52L557 52L557 26L467 26L467 0L558 0L558 26L648 26L648 52L585 52L585 78L612 78L612 104L576 104L576 130L684 130L684 157L630 157L630 183L657 183L657 209L657 209L657 235L558 235L558 261L558 261L558 287L639 287L639 313L594 313L594 339L666 339L666 365L684 365L684 391L702 391L702 417L666 417L666 443L675 443L675 470L549 470L549 496L639 496L639 522L576 522L576 548L666 548L666 574L702 574L702 600L693 600Z" fill="#ffe8ca"></path><path d="M476 600L539 600L539 574L521 574L521 548L449 548L449 522L521 522L521 496L404 496L404 470L485 470L485 443L503 443L503 417L530 417L530 391L530 391L530 365L503 365L503 339L395 339L395 313L467 313L467 287L422 287L422 261L395 261L395 235L503 235L503 209L458 209L458 183L485 183L485 157L530 157L530 130L440 130L440 104L440 104L440 78L440 78L440 52L449 52L449 26L413 26L413 0L468 0L468 26L558 26L558 52L540 52L540 78L558 78L558 104L513 104L513 130L630 130L630 157L585 157L585 183L603 183L603 209L603 209L603 235L513 235L513 261L477 261L477 287L594 287L594 313L540 313L540 339L585 339L585 365L621 365L621 391L621 391L621 417L603 417L603 443L621 443L621 470L468 470L468 496L585 496L585 522L540 522L540 548L612 548L612 574L603 574L603 600L621 600Z" fill="#ffe1b9"></path><path d="M314 600L287 600L287 574L296 574L296 548L278 548L278 522L314 522L314 496L269 496L269 470L305 470L305 443L314 443L314 417L341 417L341 391L332 391L332 365L296 365L296 339L278 339L278 313L323 313L323 287L305 287L305 261L287 261L287 235L287 235L287 209L278 209L278 183L359 183L359 157L278 157L278 130L296 130L296 104L278 104L278 78L323 78L323 52L269 52L269 26L314 26L314 0L414 0L414 26L450 26L450 52L441 52L441 78L441 78L441 104L441 104L441 130L531 130L531 157L486 157L486 183L459 183L459 209L504 209L504 235L396 235L396 261L423 261L423 287L468 287L468 313L396 313L396 339L504 339L504 365L531 365L531 391L531 391L531 417L504 417L504 443L486 443L486 470L405 470L405 496L522 496L522 522L450 522L450 548L522 548L522 574L540 574L540 600L477 600Z" fill="#ffdaa8"></path><path d="M278 600L233 600L233 574L251 574L251 548L215 548L215 522L269 522L269 496L233 496L233 470L251 470L251 443L287 443L287 417L287 417L287 391L269 391L269 365L233 365L233 339L251 339L251 313L296 313L296 287L269 287L269 261L224 261L224 235L224 235L224 209L215 209L215 183L323 183L323 157L251 157L251 130L260 130L260 104L224 104L224 78L296 78L296 52L206 52L206 26L278 26L278 0L315 0L315 26L270 26L270 52L324 52L324 78L279 78L279 104L297 104L297 130L279 130L279 157L360 157L360 183L279 183L279 209L288 209L288 235L288 235L288 261L306 261L306 287L324 287L324 313L279 313L279 339L297 339L297 365L333 365L333 391L342 391L342 417L315 417L315 443L306 443L306 470L270 470L270 496L315 496L315 522L279 522L279 548L297 548L297 574L288 574L288 600L315 600Z" fill="#ffd396"></path><path d="M260 600L206 600L206 574L233 574L233 548L197 548L197 522L251 522L251 496L197 496L197 470L224 470L224 443L242 443L242 417L251 417L251 391L251 391L251 365L206 365L206 339L233 339L233 313L251 313L251 287L224 287L224 261L197 261L197 235L206 235L206 209L188 209L188 183L278 183L278 157L233 157L233 130L242 130L242 104L179 104L179 78L251 78L251 52L188 52L188 26L242 26L242 0L279 0L279 26L207 26L207 52L297 52L297 78L225 78L225 104L261 104L261 130L252 130L252 157L324 157L324 183L216 183L216 209L225 209L225 235L225 235L225 261L270 261L270 287L297 287L297 313L252 313L252 339L234 339L234 365L270 365L270 391L288 391L288 417L288 417L288 443L252 443L252 470L234 470L234 496L270 496L270 522L216 522L216 548L252 548L252 574L234 574L234 600L279 600Z" fill="#ffcc85"></path><path d="M215 600L152 600L152 574L188 574L188 548L161 548L161 522L197 522L197 496L152 496L152 470L197 470L197 443L197 443L197 417L215 417L215 391L197 391L197 365L170 365L170 339L197 339L197 313L224 313L224 287L170 287L170 261L170 261L170 235L179 235L179 209L143 209L143 183L224 183L224 157L206 157L206 130L197 130L197 104L152 104L152 78L224 78L224 52L134 52L134 26L188 26L188 0L243 0L243 26L189 26L189 52L252 52L252 78L180 78L180 104L243 104L243 130L234 130L234 157L279 157L279 183L189 183L189 209L207 209L207 235L198 235L198 261L225 261L225 287L252 287L252 313L234 313L234 339L207 339L207 365L252 365L252 391L252 391L252 417L243 417L243 443L225 443L225 470L198 470L198 496L252 496L252 522L198 522L198 548L234 548L234 574L207 574L207 600L261 600Z" fill="#ffc474"></path><path d="M116 600L71 600L71 574L80 574L80 548L107 548L107 522L107 522L107 496L89 496L89 470L116 470L116 443L89 443L89 417L116 417L116 391L98 391L98 365L107 365L107 339L107 339L107 313L116 313L116 287L98 287L98 261L80 261L80 235L89 235L89 209L62 209L62 183L125 183L125 157L71 157L71 130L98 130L98 104L71 104L71 78L107 78L107 52L71 52L71 26L107 26L107 0L189 0L189 26L135 26L135 52L225 52L225 78L153 78L153 104L198 104L198 130L207 130L207 157L225 157L225 183L144 183L144 209L180 209L180 235L171 235L171 261L171 261L171 287L225 287L225 313L198 313L198 339L171 339L171 365L198 365L198 391L216 391L216 417L198 417L198 443L198 443L198 470L153 470L153 496L198 496L198 522L162 522L162 548L189 548L189 574L153 574L153 600L216 600Z" fill="#febd62"></path><path d="M80 600L44 600L44 574L53 574L53 548L62 548L62 522L62 522L62 496L53 496L53 470L80 470L80 443L44 443L44 417L71 417L71 391L53 391L53 365L62 365L62 339L80 339L80 313L62 313L62 287L71 287L71 261L35 261L35 235L44 235L44 209L35 209L35 183L71 183L71 157L35 157L35 130L53 130L53 104L44 104L44 78L53 78L53 52L35 52L35 26L53 26L53 0L108 0L108 26L72 26L72 52L108 52L108 78L72 78L72 104L99 104L99 130L72 130L72 157L126 157L126 183L63 183L63 209L90 209L90 235L81 235L81 261L99 261L99 287L117 287L117 313L108 313L108 339L108 339L108 365L99 365L99 391L117 391L117 417L90 417L90 443L117 443L117 470L90 470L90 496L108 496L108 522L108 522L108 548L81 548L81 574L72 574L72 600L117 600Z" fill="#fdb650"></path><path d="M0 600L0 600L0 574L0 574L0 548L0 548L0 522L0 522L0 496L0 496L0 470L0 470L0 443L0 443L0 417L0 417L0 391L0 391L0 365L0 365L0 339L0 339L0 313L0 313L0 287L0 287L0 261L0 261L0 235L0 235L0 209L0 209L0 183L0 183L0 157L0 157L0 130L0 130L0 104L0 104L0 78L0 78L0 52L0 52L0 26L0 26L0 0L54 0L54 26L36 26L36 52L54 52L54 78L45 78L45 104L54 104L54 130L36 130L36 157L72 157L72 183L36 183L36 209L45 209L45 235L36 235L36 261L72 261L72 287L63 287L63 313L81 313L81 339L63 339L63 365L54 365L54 391L72 391L72 417L45 417L45 443L81 443L81 470L54 470L54 496L63 496L63 522L63 522L63 548L54 548L54 574L45 574L45 600L81 600Z" fill="#fcaf3c"></path></svg>